<svg xmlns="http://www.w3.org/2000/svg" viewBox="0 0 576 512" fill="currentColor">
  <!--! Font Awesome Pro 6.4.2 by @fontawesome - https://fontawesome.com License - https://fontawesome.com/license (Commercial License) Copyright 2023 Fonticons, Inc. -->
  <path d="M549.655 124.083c-6.281-23.65-24.787-42.118-48.284-48.597C458.781 64 288 64 288 64S117.22 64 74.629 75.486c-23.497 6.479-41.999 24.947-48.284 48.597-11.412 42.867-11.412 132.305-11.412 132.305s0 89.438 11.412 132.305c6.285 23.65 24.787 41.999 48.284 48.597C117.22 448 288 448 288 448s170.78 0 213.371-11.486c23.497-6.598 41.999-24.947 48.284-48.597C561.067 361.695 561.067 272.257 561.067 272.257s0-89.438-11.412-132.305zM232 344.225V167.775l142.739 88.225-142.739 88.225z" />
</svg>
